# xmcd CD database file
#
# Track frame offsets:
#	150
#	18262
#	35322
#	49737
#	68272
#	89972
#	111675
#	141047
#	160225
#	176702
#	204962
#	231405
#	244225
#
# Disc length: 3447 seconds
#
# Revision: 0
# Processed by: cddbd v1.5.1PL0 Copyright (c) Steve Scherf et al.
# Submitted via: CDex 1.51
#
DISCID=b40d750d
DTITLE=Dan Barrett and Rebecca Kilgore - Moon Song
DYEAR=1998
DGENRE=Jazz
TTITLE0=Moon Song
TTITLE1=Scratch My Back
TTITLE2=Georgianna
TTITLE3=With a Smile and a Song
TTITLE4=Miss Brown to You
TTITLE5=Time on My Hands
TTITLE6=With 'Em
TTITLE7=Mound Bayou
TTITLE8=I'll Never Say "Never Again" Again
TTITLE9=I Surrender, Dear
TTITLE10=My Gal Sal
TTITLE11=Got a Date With an Angel
TTITLE12=Mama, That Moon Is Here Again
EXTD=YEAR: 1998
EXTT0=
EXTT1=
EXTT2=
EXTT3=
EXTT4=
EXTT5=
EXTT6=
EXTT7=
EXTT8=
EXTT9=
EXTT10=
EXTT11=
EXTT12=
PLAYORDER=
